<svg width="1082" height="479" viewBox="0 0 1082 479" fill="none" xmlns="http://www.w3.org/2000/svg">
<path fill-rule="evenodd" clip-rule="evenodd" d="M981.423 145.496C1085.61 193.81 898.826 234.132 684.007 254.569C682.931 245.644 682.256 236.656 682.006 227.604C680.568 176.457 692.773 125.821 710.441 77.2951C818.589 92.232 916.18 115.237 981.423 145.496ZM630.963 259.166C614.244 260.481 597.505 261.672 580.829 262.735C593.956 254.247 606.461 244.659 618.904 235.083C622.307 243.474 626.367 251.483 630.963 259.166ZM400.392 268.993C247.701 269.054 155.566 252.199 267.945 211.908C286.031 205.423 298.393 198.914 287.794 192.882C260.312 177.242 204.087 178.019 152.489 171.154C-35.2496 146.18 101.273 83.584 217.981 68.3505C266.139 62.0681 320.876 58.487 378.788 57.4769C338.37 96.2205 327.761 152.127 326.839 205.5L326.787 208.357L328.394 210.763C340.338 228.699 357.177 243.37 375.454 255.082C383.38 260.162 391.749 264.807 400.392 268.993ZM587.181 64.0721C607.445 65.659 627.632 67.513 647.613 69.6343C635.962 88.7292 627.342 109.665 621.531 132.25C612.692 108.244 601.621 85.324 587.181 64.0721Z" fill="white"/>
<path fill-rule="evenodd" clip-rule="evenodd" d="M585.825 7.47189C432.324 13.6566 345.484 48.4345 342.531 206.08C378.961 262.592 469.171 287.231 498.01 284.612C498.551 308.98 513.256 329.821 543.334 341.718C544.741 340.584 560.023 313.989 560.46 311.47C542.894 306.05 529.678 294.043 517.907 279.846C557.937 271.757 589.224 244.095 620.739 219.336C631.389 254.986 654.124 283.653 681.064 309.891C651.791 210.065 673.278 118.949 725.833 1.26117C663.566 39.0468 629.825 96.6767 621.332 171.865C608.671 124.022 590.097 79.2632 557.165 41.8784C561.982 29.3071 573.265 18.2413 585.825 7.47189ZM403.788 176.811C404.984 158.146 397.945 142.501 388.066 141.866C378.188 141.233 369.21 155.853 368.014 174.518C366.818 193.185 373.854 208.831 383.735 209.463C393.61 210.096 402.589 195.477 403.788 176.811ZM506.37 150.976C512.516 159.35 518.591 167.827 528.72 170.65C537.118 165.813 537.242 157.26 534.502 147.412C540.609 157.528 547.006 167.122 559.645 165.388C564.54 151.299 557.191 140.129 552.087 128.421C565.029 135.463 575.099 162.35 562.405 172.542C566.935 212.047 536.19 211.703 526.905 178.045C548.453 209.38 558.693 197.861 557.862 172.25C550.213 171.264 544.344 167.229 540.713 159.347C539.934 167.156 538.363 174.065 532.905 176.551C517.968 171.413 510.913 161.894 506.37 150.976Z" fill="white"/>
<path d="M0.524414 476.193V402.188H58.7248V410.701H9.7019V432.417H39.3401V440.93H9.7019V476.193H0.524414ZM144.621 476.193V401.777H153.936V476.193H144.621ZM245.118 465.072L250.496 457.086C255.713 461.158 261.161 464.272 266.814 466.399C272.467 468.55 278.075 469.625 283.614 469.625C290.456 469.625 296.018 468.183 300.275 465.277C304.554 462.371 306.683 458.618 306.683 454.065C306.683 450.45 305.149 447.452 302.083 445.118C299.039 442.76 294.782 441.365 289.381 440.93C288.076 440.793 286.199 440.655 283.751 440.518C271.599 439.671 263.289 438.23 258.872 436.239C255.44 434.569 252.807 432.44 251.022 429.832C249.237 427.223 248.345 424.271 248.345 421.021C248.345 415.072 250.999 410.175 256.332 406.33C261.642 402.486 268.553 400.564 277.045 400.564C283.224 400.564 289.312 401.571 295.309 403.608C301.327 405.644 307.049 408.642 312.45 412.623L307.095 420.267C302.517 416.605 297.734 413.836 292.699 411.983C287.665 410.13 282.492 409.214 277.181 409.214C271.599 409.214 266.998 410.289 263.358 412.463C259.741 414.637 257.933 417.338 257.933 420.61C257.933 421.891 258.231 423.081 258.804 424.156C259.376 425.232 260.291 426.239 261.482 427.177C264.525 429.465 271.093 430.908 281.21 431.525C285.857 431.8 289.45 432.097 291.989 432.395C299.519 433.265 305.448 435.667 309.841 439.648C314.213 443.63 316.41 448.527 316.41 454.34C316.41 461.273 313.412 466.971 307.392 471.433C301.374 475.895 293.5 478.138 283.751 478.138C276.38 478.138 269.515 477.063 263.198 474.911C256.882 472.783 250.839 469.488 245.118 465.072ZM410.133 476.193V402.188H419.448V431.41H463.115V402.188H472.361V476.193H463.115V439.923H419.448V476.193H410.133ZM583.569 476.193V410.701H552.465V402.188H623.988V410.701H592.815V476.193H583.569ZM709.173 447.634H741.74L725.399 414.866L709.173 447.634ZM685.304 476.193L721.58 402.188H729.222L765.886 476.193H755.907L745.84 456.285H704.939L695.169 476.193H685.304ZM853.108 476.193V402.188H857.938L905.957 457.498V402.188H915.202V476.193H910.509L862.289 420.884V476.193H853.108ZM1013.23 476.193V402.052H1022.41V438.985L1064.86 402.052H1076.92L1047.01 428.39L1081.48 476.193H1070.35L1040.37 434.775L1022.41 449.854V476.193H1013.23Z" fill="white"/>
</svg>
