<?xml version="1.0" encoding="UTF-8"?>
<svg id="Layer_1" xmlns="http://www.w3.org/2000/svg" version="1.1" viewBox="0 0 715.2 124.2">
  <!-- Generator: Adobe Illustrator 29.8.2, SVG Export Plug-In . SVG Version: 2.1.1 Build 3)  -->
  <polygon points="453.7 2.5 476.7 44.9 447.8 44.9 403.9 124.2 440.5 124.2 480 51.1 519.5 124.2 556.1 124.2 488.8 2.5 453.7 2.5"/>
  <path d="M331.4.7h-87.2l28.7,30.8h-28.4v92.7h86.8c27.9,0,50.5-21.1,50.5-47v-29.6c0-25.9-22.7-47-50.5-47h0ZM350.9,77.2c0,8.8-8.8,16-19.6,16h-58.3V31.6h58.3c10.8,0,19.6,7.2,19.6,16v29.6Z"/>
  <rect x="176.1" y="1" width="28" height="123.3"/>
  <polygon points="82.2 31.7 135.9 31.7 135.9 .6 81.8 .6 82.2 31.7"/>
  <polygon points="0 .6 0 31.7 54 31.7 54 124.2 81.9 124.2 81.9 31.7 82 31.7 53.2 .6 0 .6"/>
  <rect x="579.3" width="28" height="93.2"/>
  <rect x="607.6" y="93.2" width="107.6" height="31"/>
</svg>